# Wavefront Obj file
# 
# verts: 122 uv-s: 171
mtllib breadboard.mtl

g breadboard
#pivot 0.000000 0.000000 0.000000

v 200.639038 18.915266 -127.465446
v -210.390656 18.914593 -121.114212
v -230.238754 -3.273460 -136.610275
v 220.383682 1.321818 -143.809357
v 201.470215 -18.915052 -127.456161
v -209.608032 -18.914959 -120.734238
v -176.069275 18.915092 -132.313766
v -176.423309 -18.915087 -131.414474
v 164.064346 18.915094 -136.555191
v -189.726242 -2.254679 -169.926727
v 165.191422 -18.915092 -136.539368
v 113.960213 -18.915094 -141.675446
v 112.958641 18.915085 -143.477814
v -7.030013 18.915085 -145.602707
v -126.081802 18.915092 -140.475143
v 177.378281 -0.022837 -178.999847
v -7.281293 -18.915087 -143.847214
v -126.950401 -18.915094 -140.082855
v -7.325729 -1.070162 -179.703659
v 116.085938 -0.365556 -179.699356
v -130.600235 -1.204958 -179.702164
v -6.656443 18.915176 -52.207684
v 107.957497 18.915176 -51.573780
v -7.488769 -18.915176 -52.121471
v 110.379089 -18.915176 -51.394131
v 160.708694 -18.915165 -49.769363
v 203.069641 -18.915071 -48.724697
v 234.259750 0.789991 -48.575581
v 158.558929 18.915165 -49.688457
v 201.460907 18.915071 -48.657677
v -222.029099 -18.913349 -44.340015
v -176.242874 -18.915159 -47.583214
v -124.412048 -18.915176 -50.173958
v -234.260880 -0.215018 -52.713863
v -173.427048 18.915165 -46.291409
v -121.417213 18.915176 -49.377464
v -222.172607 18.909719 -44.023998
v -224.205627 -18.913387 -1.420438
v -176.100037 -18.915165 -1.153344
v -124.735802 -18.915176 -0.932229
v 109.711227 -18.915176 -0.388499
v 160.982895 -18.915165 -0.356256
v 234.261948 1.173698 -0.129874
v 158.381256 18.915165 0.324570
v 200.929092 18.915085 0.265251
v -7.542732 -18.915176 -0.637399
v 202.589600 -18.915071 -0.137008
v -222.748550 18.909294 0.425424
v -173.855530 18.915165 0.172451
v -120.996635 18.915176 0.613785
v -6.529257 18.915176 0.734968
v 107.130898 18.915176 0.576180
v -271.812683 0.272599 48.585171
v -268.924500 18.913120 29.723475
v -223.003220 18.909086 43.206947
v -269.381500 -18.915014 28.137300
v -223.657043 -18.913956 42.533226
v -176.890442 -18.915155 45.509811
v -125.224602 -18.915176 48.297115
v -310.291168 -0.811685 29.917332
v -234.263931 -0.736181 50.512341
v -307.328339 -18.904469 22.571072
v 234.263275 0.974964 48.679749
v -174.841766 18.915165 46.621227
v -307.027191 18.887407 22.222969
v -366.645691 18.297665 20.828350
v -374.560455 -2.805053 25.727169
v -7.483716 -18.915176 50.739998
v 110.683746 -18.915176 50.554600
v 161.293930 -18.915165 49.276653
v 203.106232 -18.915071 48.346054
v -368.740417 -18.897499 19.387749
v -122.188004 18.915176 50.522011
v -6.599375 18.915176 53.636993
v 108.305763 18.915176 52.605911
v 158.943985 18.915165 50.667198
v 201.566971 18.915077 48.920181
v -343.607422 -0.309981 20.492001
v -343.084717 16.416555 18.763250
v -343.314270 -18.653986 18.104401
v -371.849670 -18.914801 -1.324247
v -265.768494 18.916105 -0.371090
v -341.742615 18.913805 0.204712
v -371.474487 18.914459 1.436912
v -391.144501 0.292189 0.014098
v -342.254761 -18.914923 -0.811316
v -307.974640 18.915134 0.295362
v -265.651611 -18.915140 -0.940406
v -308.209137 -18.915207 -1.462348
v -211.021118 18.914677 119.382050
v -211.963882 -18.914749 119.489609
v -342.962494 17.583332 -17.881027
v 200.755157 -18.915070 126.846809
v -232.149246 1.467562 133.740891
v 201.576355 18.915346 129.022156
v -343.610291 -17.576609 -20.415136
v -367.900726 18.725634 -19.503622
v 221.083878 -1.486290 143.821793
v -179.058243 18.915094 129.799759
v -343.052826 -0.178201 -20.511421
v -178.837921 -18.915094 130.019547
v -306.545105 18.799707 -24.238594
v -376.295288 3.023359 -26.043108
v -367.467865 -18.680941 -21.367479
v -7.457350 -18.915092 142.902756
v 114.064415 -18.915092 141.658432
v -191.346863 1.478389 167.799683
v -305.805298 -18.904137 -23.223637
v 165.693481 18.915085 138.281921
v -128.740738 -18.915094 138.792755
v -309.501343 0.011190 -30.186966
v 166.069794 -18.915094 135.945206
v -268.571228 -18.913679 -30.620932
v -127.574234 18.915092 141.027069
v -268.178192 18.913357 -28.618176
v -7.087803 18.914845 146.515045
v 177.879395 -3.354287 179.174850
v 113.590874 18.915085 144.279312
v -269.565277 -0.374285 -48.150681
v -133.828522 -0.260420 179.700546
v -7.412412 -2.442689 179.698730
v 117.071838 -1.839945 179.700226
# 122 positions

vt 0.022468 0.917591
vt 0.070209 0.917446
vt 0.073308 0.952496
vt 0.010000 0.944704
vt 0.065686 0.356318
vt 0.061551 0.513184
vt 0.010000 0.513087
vt 0.012082 0.349276
vt 0.068477 0.669810
vt 0.012435 0.678983
vt 0.014939 0.268076
vt 0.074550 0.289133
vt 0.405450 0.929274
vt 0.407476 0.956352
vt 0.351044 0.955609
vt 0.356356 0.923706
vt 0.564007 0.826541
vt 0.572744 0.893795
vt 0.513660 0.913008
vt 0.509644 0.832558
vt 0.507645 0.669233
vt 0.560323 0.668459
vt 0.564692 0.510814
vt 0.506075 0.503452
vt 0.406182 0.982708
vt 0.356302 0.990000
vt 0.575895 0.446149
vt 0.520621 0.427091
vt 0.083180 0.736501
vt 0.029319 0.754638
vt 0.453860 0.956485
vt 0.454486 0.933637
vt 0.485597 0.931301
vt 0.498520 0.959616
vt 0.088222 0.243940
vt 0.063671 0.211146
vt 0.586171 0.937864
vt 0.561016 0.970177
vt 0.454186 0.980061
vt 0.486795 0.981379
vt 0.590062 0.404118
vt 0.564621 0.371636
vt 0.097305 0.777390
vt 0.073447 0.809475
vt 0.185783 0.364091
vt 0.183379 0.513373
vt 0.189356 0.297790
vt 0.186940 0.663971
vt 0.683065 0.820513
vt 0.686042 0.886681
vt 0.681224 0.666767
vt 0.745277 0.328599
vt 0.745130 0.273131
vt 0.773533 0.275862
vt 0.783914 0.324289
vt 0.191514 0.241562
vt 0.190900 0.192606
vt 0.687916 0.941572
vt 0.686875 0.990000
vt 0.743592 0.228766
vt 0.769173 0.226609
vt 0.683382 0.513335
vt 0.686750 0.445637
vt 0.192158 0.732918
vt 0.332813 0.878373
vt 0.365058 0.875757
vt 0.362159 0.906073
vt 0.336128 0.914456
vt 0.802939 0.384734
vt 0.746697 0.382575
vt 0.196027 0.796329
vt 0.276258 0.952728
vt 0.252617 0.951228
vt 0.252380 0.907185
vt 0.284355 0.905243
vt 0.278437 0.985247
vt 0.251179 0.990000
vt 0.253197 0.852156
vt 0.290017 0.855252
vt 0.300310 0.878981
vt 0.302327 0.908074
vt 0.743634 0.190181
vt 0.769846 0.195463
vt 0.689146 0.383917
vt 0.674713 0.357481
vt 0.182565 0.824859
vt 0.203813 0.944902
vt 0.170587 0.943948
vt 0.170928 0.919525
vt 0.212612 0.922807
vt 0.716710 0.194666
vt 0.718917 0.227775
vt 0.304298 0.849235
vt 0.329450 0.841356
vt 0.225878 0.983836
vt 0.228214 0.953014
vt 0.362159 0.847517
vt 0.201570 0.894871
vt 0.170659 0.897326
vt 0.223799 0.905916
vt 0.713830 0.274755
vt 0.123268 0.945873
vt 0.124703 0.919636
vt 0.123727 0.891160
vt 0.707309 0.324299
vt 0.305439 0.955626
vt 0.292276 0.984773
vt 0.213960 0.856217
vt 0.073356 0.884238
vt 0.010000 0.888546
vt 0.252045 0.663004
vt 0.252728 0.513485
vt 0.252431 0.732436
vt 0.252117 0.796122
vt 0.748650 0.665689
vt 0.749535 0.818519
vt 0.254426 0.297933
vt 0.253829 0.365325
vt 0.254446 0.241994
vt 0.255302 0.192739
vt 0.751324 0.989554
vt 0.750629 0.940457
vt 0.750100 0.885842
vt 0.747730 0.512643
vt 0.747251 0.445236
vt 0.310385 0.795548
vt 0.312631 0.731197
vt 0.317422 0.663089
vt 0.807518 0.444884
vt 0.811939 0.512671
vt 0.292276 0.926990
vt 0.319095 0.298422
vt 0.317988 0.241949
vt 0.322238 0.513622
vt 0.319178 0.192780
vt 0.813516 0.939909
vt 0.815363 0.988370
vt 0.814053 0.884091
vt 0.816263 0.818153
vt 0.816122 0.664972
vt 0.321951 0.364586
vt 0.409809 0.776121
vt 0.437217 0.809475
vt 0.325839 0.824181
vt 0.425555 0.732935
vt 0.816880 0.356436
vt 0.926762 0.371636
vt 0.902255 0.402378
vt 0.445165 0.214178
vt 0.419958 0.245390
vt 0.915133 0.934241
vt 0.941700 0.966020
vt 0.917191 0.444761
vt 0.432846 0.291935
vt 0.442185 0.358055
vt 0.444827 0.514102
vt 0.436965 0.668647
vt 0.927853 0.888229
vt 0.934603 0.821973
vt 0.936402 0.664280
vt 0.929478 0.508736
vt 0.496475 0.514458
vt 0.494333 0.676231
vt 0.495747 0.352280
vt 0.985853 0.502451
vt 0.988733 0.664015
vt 0.990000 0.826199
vt 0.987880 0.907769
vt 0.492702 0.270941
vt 0.971047 0.424910
vt 0.480668 0.754505
# 171 texture coordinates

vn 0.270302 0.948832 -0.163262
vn -0.387106 0.898276 -0.207966
vn -0.887438 -0.062943 -0.456609
vn 0.862847 0.031757 -0.504467
vn 0.306866 -0.935687 -0.174136
vn -0.329413 -0.930384 -0.160851
vn -0.099434 0.964571 -0.244367
vn -0.071599 -0.977004 -0.200842
vn 0.063545 0.973405 -0.220102
vn -0.357866 -0.055420 -0.932127
vn 0.072990 -0.972645 -0.220531
vn 0.007936 -0.975377 -0.220402
vn 0.007286 0.971542 -0.236756
vn -0.002297 0.968349 -0.249592
vn -0.024274 0.970178 -0.241177
vn 0.295953 0.005997 -0.955184
vn 0.000106 -0.974933 -0.222499
vn -0.016295 -0.977769 -0.209053
vn -0.004623 -0.027859 -0.999601
vn 0.033280 -0.017255 -0.999297
vn -0.089647 -0.033854 -0.995398
vn 0.000000 1.000000 -0.000000
vn 0.000000 1.000000 -0.000000
vn -0.000000 -1.000000 -0.000000
vn 0.000000 -1.000000 -0.000000
vn 0.000001 -1.000000 -0.000000
vn 0.300671 -0.953635 -0.013329
vn 0.998407 0.035376 -0.043960
vn 0.000000 1.000000 -0.000000
vn 0.267152 0.963584 -0.011674
vn -0.194873 -0.962876 -0.186802
vn -0.000016 -1.000000 0.000001
vn -0.000000 -1.000000 -0.000000
vn -0.734707 -0.020275 -0.678082
vn -0.000046 1.000000 0.000007
vn -0.000000 1.000000 -0.000000
vn -0.213604 0.958241 -0.190126
vn -0.000004 -1.000000 -0.000008
vn -0.000018 -1.000000 -0.000002
vn -0.000000 -1.000000 0.000000
vn 0.000000 -1.000000 -0.000000
vn 0.000001 -1.000000 -0.000000
vn 0.999399 0.034675 -0.000396
vn 0.000001 1.000000 -0.000000
vn 0.245556 0.969382 -0.000566
vn 0.000000 -1.000000 0.000000
vn 0.279009 -0.960289 0.000363
vn -0.000003 1.000000 0.000005
vn -0.000060 1.000000 0.000001
vn -0.000000 1.000000 -0.000000
vn 0.000000 1.000000 0.000000
vn 0.000000 1.000000 -0.000000
vn -0.251149 -0.020171 0.967738
vn -0.115487 0.890846 0.439381
vn -0.197119 0.961561 0.191166
vn -0.108457 -0.899477 0.423295
vn -0.205239 -0.960677 0.187022
vn -0.000013 -1.000000 -0.000002
vn -0.000000 -1.000000 0.000000
vn -0.249052 -0.008726 0.968451
vn -0.728646 -0.004803 0.684873
vn -0.127434 -0.851791 0.508146
vn 0.999042 0.015066 0.041079
vn -0.000050 1.000000 -0.000007
vn -0.145809 0.838202 0.525506
vn -0.247204 0.733671 0.632943
vn -0.426372 -0.044629 0.903446
vn -0.000000 -1.000000 0.000000
vn 0.000000 -1.000000 0.000000
vn 0.000001 -1.000000 0.000000
vn 0.291334 -0.956576 0.009285
vn -0.272338 -0.792375 0.545870
vn 0.000000 1.000000 0.000001
vn -0.000000 1.000000 0.000001
vn -0.000000 1.000000 0.000001
vn 0.000000 1.000000 -0.000000
vn 0.275090 0.961317 0.013995
vn -0.032024 -0.022277 0.999239
vn -0.016421 0.757522 0.652603
vn -0.021862 -0.791435 0.610862
vn -0.426611 -0.903950 -0.029609
vn -0.000429 1.000000 -0.000405
vn 0.000584 0.999854 0.017101
vn -0.400850 0.914554 0.053948
vn -0.999543 0.016216 0.025531
vn 0.000553 -0.999895 -0.014498
vn -0.015203 0.999863 0.006553
vn -0.000058 -1.000000 -0.000018
vn -0.006068 -0.999959 -0.006711
vn -0.357402 0.918218 0.170706
vn -0.379869 -0.903288 0.199425
vn -0.026836 0.779680 -0.625603
vn 0.282858 -0.948451 0.142943
vn -0.893358 0.028790 0.448423
vn 0.296555 0.935270 0.193196
vn -0.020088 -0.750249 -0.660850
vn -0.242894 0.807429 -0.537644
vn 0.864550 -0.037280 0.501163
vn -0.084777 0.973039 0.214495
vn -0.038485 0.043932 -0.998293
vn -0.098926 -0.967459 0.232889
vn -0.140014 0.835659 -0.531102
vn -0.434039 0.080647 -0.897277
vn -0.280456 -0.735912 -0.616262
vn -0.002697 -0.977770 0.209662
vn 0.003157 -0.979980 0.199074
vn -0.379641 0.024250 0.924816
vn -0.137343 -0.830440 -0.539913
vn 0.077292 0.964157 0.253825
vn -0.028449 -0.976375 0.214204
vn -0.244429 0.012908 -0.969581
vn 0.061514 -0.979943 0.189545
vn -0.122802 -0.888327 -0.442488
vn -0.019774 0.972222 0.233223
vn -0.116212 0.891998 -0.436846
vn -0.000140 0.964852 0.262795
vn 0.298153 -0.067841 0.952104
vn 0.010979 0.965272 0.261016
vn -0.262018 0.008940 -0.965022
vn -0.107194 -0.019184 0.994053
vn -0.006036 -0.054788 0.998480
vn 0.030550 -0.064077 0.997477
# 122 normals

usemtl breadboard
f 61/1/61 53/2/53 56/3/56 57/4/57
f 118/5/118 116/6/116 121/7/121 122/8/122
f 116/6/116 114/9/114 120/10/120 121/7/121
f 117/11/117 109/12/109 118/5/118 122/8/122
f 108/13/108 111/14/111 119/15/119 113/16/113
f 106/17/106 112/18/112 117/19/117 122/20/122
f 121/21/121 105/22/105 106/17/106 122/20/122
f 110/23/110 105/22/105 121/21/121 120/24/120
f 111/14/111 102/25/102 115/26/115 119/15/119
f 101/27/101 110/23/110 120/24/120 107/28/107
f 114/9/114 99/29/99 107/30/107 120/10/120
f 100/31/100 96/32/96 104/33/104 103/34/103
f 96/32/96 100/31/100 111/14/111 108/13/108
f 95/35/95 109/12/109 117/11/117 98/36/98
f 112/18/112 93/37/93 98/38/98 117/19/117
f 100/31/100 92/39/92 102/25/102 111/14/111
f 92/39/92 100/31/100 103/34/103 97/40/97
f 91/41/91 101/27/101 107/28/107 94/42/94
f 99/29/99 90/43/90 94/44/94 107/30/107
f 116/6/116 118/5/118 75/45/75 74/46/74
f 76/47/76 75/45/75 118/5/118 109/12/109
f 114/9/114 116/6/116 74/46/74 73/48/73
f 69/49/69 70/50/70 112/18/112 106/17/106
f 106/17/106 105/22/105 68/51/68 69/49/69
f 88/52/88 89/53/89 108/54/108 113/55/113
f 77/56/77 76/47/76 109/12/109 95/35/95
f 98/36/98 63/57/63 77/56/77 95/35/95
f 93/37/93 71/58/71 63/59/63 98/38/98
f 93/37/93 112/18/112 70/50/70 71/58/71
f 86/60/86 96/61/96 108/54/108 89/53/89
f 105/22/105 110/23/110 59/62/59 68/51/68
f 101/27/101 58/63/58 59/62/59 110/23/110
f 99/29/99 114/9/114 73/48/73 64/64/64
f 85/65/85 84/66/84 97/67/97 103/68/103
f 31/69/31 38/70/38 88/52/88 113/55/113
f 64/64/64 55/71/55 90/43/90 99/29/99
f 92/72/92 83/73/83 87/74/87 102/75/102
f 83/73/83 92/72/92 97/76/97 84/77/84
f 87/74/87 82/78/82 115/79/115 102/75/102
f 81/80/81 85/65/85 103/68/103 104/81/104
f 86/60/86 81/82/81 104/83/104 96/61/96
f 57/84/57 58/63/58 101/27/101 91/41/91
f 94/42/94 61/85/61 57/84/57 91/41/91
f 94/44/94 90/43/90 55/71/55 61/86/61
f 72/87/72 80/88/80 78/89/78 67/90/67
f 72/91/72 81/82/81 86/60/86 80/92/80
f 72/93/72 67/94/67 85/65/85 81/80/81
f 84/77/84 66/95/66 79/96/79 83/73/83
f 67/94/67 66/97/66 84/66/84 85/65/85
f 66/98/66 67/90/67 78/89/78 79/99/79
f 65/100/65 87/74/87 83/73/83 79/96/79
f 89/53/89 62/101/62 80/92/80 86/60/86
f 62/102/62 60/103/60 78/89/78 80/88/80
f 60/103/60 65/104/65 79/99/79 78/89/78
f 88/52/88 56/105/56 62/101/62 89/53/89
f 34/106/34 119/15/119 115/26/115 37/107/37
f 54/108/54 82/78/82 87/74/87 65/100/65
f 56/3/56 53/2/53 60/103/60 62/102/62
f 53/2/53 54/109/54 65/104/65 60/103/60
f 53/2/53 61/1/61 55/110/55 54/109/54
f 50/111/50 73/48/73 74/46/74 51/112/51
f 49/113/49 64/64/64 73/48/73 50/111/50
f 49/113/49 48/114/48 55/71/55 64/64/64
f 48/114/48 82/78/82 54/108/54 55/71/55
f 68/51/68 46/115/46 41/116/41 69/49/69
f 76/47/76 44/117/44 52/118/52 75/45/75
f 44/117/44 76/47/76 77/56/77 45/119/45
f 51/112/51 74/46/74 75/45/75 52/118/52
f 63/57/63 43/120/43 45/119/45 77/56/77
f 43/121/43 63/59/63 71/58/71 47/122/47
f 42/123/42 47/122/47 71/58/71 70/50/70
f 69/49/69 41/116/41 42/123/42 70/50/70
f 59/62/59 40/124/40 46/115/46 68/51/68
f 58/63/58 39/125/39 40/124/40 59/62/59
f 88/52/88 38/70/38 57/84/57 56/105/56
f 38/70/38 39/125/39 58/63/58 57/84/57
f 115/79/115 82/78/82 48/114/48 37/126/37
f 49/113/49 35/127/35 37/126/37 48/114/48
f 35/127/35 49/113/49 50/111/50 36/128/36
f 39/125/39 32/129/32 33/130/33 40/124/40
f 38/70/38 31/69/31 32/129/32 39/125/39
f 113/16/113 119/15/119 34/106/34 31/131/31
f 29/132/29 44/117/44 45/119/45 30/133/30
f 51/112/51 22/134/22 36/128/36 50/111/50
f 43/120/43 28/135/28 30/133/30 45/119/45
f 47/122/47 27/136/27 28/137/28 43/121/43
f 26/138/26 27/136/27 47/122/47 42/123/42
f 25/139/25 26/138/26 42/123/42 41/116/41
f 46/115/46 24/140/24 25/139/25 41/116/41
f 40/124/40 33/130/33 24/140/24 46/115/46
f 52/118/52 23/141/23 22/134/22 51/112/51
f 29/132/29 23/141/23 52/118/52 44/117/44
f 37/126/37 2/142/2 3/143/3 34/144/34
f 7/145/7 2/142/2 37/126/37 35/127/35
f 31/69/31 34/146/34 3/147/3 6/148/6
f 28/135/28 4/149/4 1/150/1 30/133/30
f 27/136/27 5/151/5 4/152/4 28/137/28
f 6/148/6 8/153/8 32/129/32 31/69/31
f 1/150/1 9/154/9 29/132/29 30/133/30
f 22/134/22 23/141/23 13/155/13 14/156/14
f 15/157/15 7/145/7 35/127/35 36/128/36
f 11/158/11 5/151/5 27/136/27 26/138/26
f 25/139/25 12/159/12 11/158/11 26/138/26
f 24/140/24 17/160/17 12/159/12 25/139/25
f 33/130/33 18/161/18 17/160/17 24/140/24
f 8/153/8 18/161/18 33/130/33 32/129/32
f 9/154/9 13/155/13 23/141/23 29/132/29
f 36/128/36 22/134/22 14/156/14 15/157/15
f 15/157/15 14/156/14 19/162/19 21/163/21
f 14/156/14 13/155/13 20/164/20 19/162/19
f 18/161/18 21/165/21 19/166/19 17/160/17
f 17/160/17 19/166/19 20/167/20 12/159/12
f 11/158/11 12/159/12 20/167/20 16/168/16
f 13/155/13 9/154/9 16/169/16 20/164/20
f 18/161/18 8/153/8 10/170/10 21/165/21
f 7/145/7 15/157/15 21/163/21 10/171/10
f 16/168/16 4/152/4 5/151/5 11/158/11
f 3/147/3 10/170/10 8/153/8 6/148/6
f 3/143/3 2/142/2 7/145/7 10/171/10
f 9/154/9 1/150/1 4/149/4 16/169/16

# 120 faces
