# Wavefront Obj file
# 
# verts: 152 uv-s: 232
mtllib smoke_detector.mtl

g smoke_detector
#pivot 0.000000 0.000000 0.000000

v 40.890289 21.686234 -27.334616
v 27.334846 21.874184 -40.951897
v 9.600031 22.150866 -48.379623
v -9.656569 22.405712 -48.446625
v -34.982880 22.639187 -34.982410
v -45.677757 22.550140 -18.934769
v -48.383926 22.181244 9.599364
v -0.000014 33.228973 0.000001
v 18.432598 33.019672 -3.666474
v 15.626400 33.095001 -10.441236
v 10.441221 33.196453 -15.626412
v 3.666461 33.307796 -18.432608
v -3.666486 33.408314 -18.432613
v -13.289186 33.480099 -13.289170
v -17.363155 33.454437 -7.192045
v -18.432623 33.333157 3.666483
v -15.626422 33.231289 10.441246
v -10.441239 33.136711 15.626428
v -3.666472 33.062801 18.432615
v 3.666479 33.011337 18.432608
v 13.289175 32.973858 13.289160
v 17.363136 32.973515 7.192025
v 18.432602 32.981430 3.666447
v 54.936520 21.590672 -10.927553
v 46.573418 21.592556 -31.119381
v 31.132784 21.668495 -46.593529
v 10.940856 21.805122 -55.003468
v -10.947332 21.909149 -55.035938
v -39.702938 22.016802 -39.702927
v -51.859856 21.967371 -21.481035
v -55.001369 21.798340 10.940471
v -46.589397 21.652893 31.130075
v -31.120619 21.599722 46.575359
v -10.927611 21.592138 54.937000
v 10.927650 21.591522 54.936783
v 39.607082 21.590729 39.606987
v 51.749249 21.591265 21.435163
v 54.936607 21.590942 10.927488
v 57.248436 20.147905 -11.387422
v 48.528908 20.145432 -32.425991
v 32.452736 20.170393 -48.568985
v 11.417119 20.226768 -57.397793
v -11.430599 20.262495 -57.465462
v -41.479580 20.298582 -41.479561
v -54.163483 20.280540 -22.435232
v -57.383167 20.219030 11.414241
v -48.556503 20.162613 32.444443
v -32.423088 20.142742 48.524639
v -11.386640 20.145927 57.244694
v 11.386722 20.145922 57.244686
v 41.269531 20.144732 41.269447
v 53.920200 20.144163 22.334394
v 57.248936 20.148165 11.387435
v 57.339920 10.915322 -11.405622
v 48.609818 10.915322 -32.480064
v 32.505817 10.915321 -48.648415
v 11.437353 10.915322 -57.499519
v -11.452265 10.915322 -57.574387
v -41.563862 10.915322 -41.563858
v -54.268318 10.915322 -22.478659
v -57.471924 10.915322 11.431898
v -48.628990 10.915322 32.492878
v -32.480068 10.915322 48.609921
v -11.405643 10.915322 57.340237
v 11.405727 10.915322 57.340225
v 41.339531 10.915421 41.339447
v 54.012543 10.915322 22.372644
v 57.339924 10.915322 11.405535
v 57.279480 1.666354 -11.393600
v 48.562016 1.664586 -32.448116
v 32.458271 1.655111 -48.577248
v 11.413384 1.613794 -57.379017
v -11.423253 1.587657 -57.428524
v -41.433189 1.566038 -41.433170
v -54.117050 1.576136 -22.415995
v -57.350601 1.628810 11.407764
v -48.565514 1.662426 32.450462
v -32.449173 1.663582 48.563683
v -11.393679 1.666034 57.280083
v 11.393764 1.666029 57.280083
v 41.297752 1.665247 41.297661
v 53.955894 1.666472 22.349182
v 57.279598 1.666291 11.393536
v 55.002838 0.027494 -10.940746
v 46.628773 0.028919 -31.156366
v 31.160675 0.004403 -46.635277
v 10.947681 -0.084408 -55.037781
v -10.951002 -0.137590 -55.054382
v -39.700928 -0.177224 -39.700920
v -51.865849 -0.157098 -21.483515
v -55.028687 -0.055232 10.945907
v -46.630638 0.021903 31.157631
v -31.156332 0.028966 46.628799
v -10.940714 0.027472 55.002869
v 10.940792 0.027472 55.002850
v 39.654648 0.028547 39.654552
v 51.811371 0.028112 21.460896
v 55.002838 0.027493 10.940663
v 18.432598 -0.040275 -3.666474
v 15.626400 -0.068147 -10.441236
v 10.441221 -0.117676 -15.626412
v 3.666461 -0.175476 -18.432610
v -3.666486 -0.232816 -18.432613
v -13.289186 -0.277510 -13.289170
v -17.363155 -0.263351 -7.192045
v -18.432623 -0.196942 3.666483
v -15.626422 -0.144649 10.441246
v -10.441239 -0.101442 15.626427
v -3.666472 -0.070018 18.432615
v 3.666479 -0.048757 18.432608
v 13.289175 -0.031380 13.289160
v 17.363134 -0.028478 7.192025
v 18.432602 -0.029656 3.666447
v -0.000014 -0.132013 0.000001
v 48.241402 21.656551 -9.599247
v 48.245964 21.656269 9.595954
v 45.444176 21.651928 18.823149
v 34.794262 21.692795 34.795013
v 9.593197 21.663649 48.241264
v -9.599947 21.677532 48.238083
v -27.340147 21.740992 40.899719
v -40.948124 21.886822 27.335810
v -47.855415 30.956276 9.566286
v -45.262115 31.427612 -18.711838
v -34.659840 31.546991 -34.662930
v -9.490181 31.245131 -47.977287
v 9.561736 30.903181 -47.831604
v 27.063118 30.532412 -40.415314
v 40.363876 30.255669 -26.947832
v 47.574718 30.192616 -9.463593
v 47.574341 30.193409 9.466332
v 44.815853 30.197353 18.562786
v 34.302197 30.202887 34.300247
v 9.471957 30.216272 47.581997
v -9.464182 30.244122 47.595970
v -26.967112 30.338253 40.391663
v -40.429630 30.563013 27.072182
v 45.142426 32.840130 8.982574
v 42.523342 32.840878 17.613169
v 32.545845 32.843468 32.542973
v 8.987976 32.853027 45.140900
v -8.971690 32.871017 45.146355
v -25.550564 32.918503 38.286469
v -38.231544 33.020237 25.616131
v -45.103447 33.182957 9.028851
v -42.498489 33.393734 -17.563972
v -32.512974 33.451534 -32.515789
v -8.914968 33.311790 -45.113968
v 9.027931 33.147564 -45.097336
v 25.613722 32.992481 -38.224598
v 38.287102 32.876064 -25.549088
v 45.144730 32.841457 -8.976787
# 152 positions

vt 0.288770 0.711016
vt 0.236470 0.763165
vt 0.251061 0.690665
vt 0.222292 0.690540
vt 0.195702 0.701505
vt 0.175365 0.721879
vt 0.164332 0.748522
vt 0.168333 0.791300
vt 0.184194 0.815366
vt 0.195371 0.824547
vt 0.221989 0.835552
vt 0.304712 0.735005
vt 0.308845 0.777669
vt 0.297810 0.804277
vt 0.277439 0.824628
vt 0.250804 0.835598
vt 0.193574 0.979083
vt 0.113834 0.946391
vt 0.080446 0.918933
vt 0.033199 0.846957
vt 0.020938 0.719441
vt 0.053761 0.639996
vt 0.114631 0.579300
vt 0.194079 0.546553
vt 0.279948 0.546935
vt 0.392642 0.607288
vt 0.440212 0.678677
vt 0.452709 0.805918
vt 0.420009 0.885337
vt 0.359206 0.946131
vt 0.279699 0.979056
vt 0.191346 0.990000
vt 0.107611 0.955643
vt 0.072382 0.926665
vt 0.022795 0.851015
vt 0.010000 0.717297
vt 0.044506 0.633762
vt 0.108476 0.569973
vt 0.191961 0.535555
vt 0.282295 0.535747
vt 0.400860 0.598894
vt 0.451144 0.674180
vt 0.464174 0.808032
vt 0.429591 0.891688
vt 0.365436 0.955466
vt 0.281839 0.990000
vt 0.010000 0.359407
vt 0.046325 0.359405
vt 0.046347 0.448942
vt 0.010020 0.448958
vt 0.046387 0.493924
vt 0.010062 0.493957
vt 0.046564 0.583491
vt 0.010214 0.583496
vt 0.091377 0.134805
vt 0.127715 0.134727
vt 0.127561 0.267999
vt 0.091245 0.267976
vt 0.127500 0.357537
vt 0.091172 0.357528
vt 0.127513 0.447076
vt 0.091178 0.447084
vt 0.127659 0.536659
vt 0.091291 0.536632
vt 0.544065 0.989831
vt 0.507709 0.990000
vt 0.507606 0.900324
vt 0.544065 0.900269
vt 0.507664 0.766641
vt 0.544341 0.766730
vt 0.507766 0.676640
vt 0.544545 0.676872
vt 0.708520 0.411899
vt 0.708869 0.448632
vt 0.574994 0.448852
vt 0.574967 0.412235
vt 0.485176 0.448860
vt 0.485202 0.412326
vt 0.395446 0.448851
vt 0.395557 0.412448
vt 0.010050 0.180345
vt 0.046427 0.180263
vt 0.046360 0.269864
vt 0.010039 0.269862
vt 0.082586 0.359407
vt 0.082610 0.448902
vt 0.082625 0.493867
vt 0.082819 0.583308
vt 0.163986 0.134904
vt 0.163812 0.268045
vt 0.163754 0.357541
vt 0.163744 0.447025
vt 0.163986 0.536487
vt 0.471346 0.989936
vt 0.471066 0.900294
vt 0.470902 0.766645
vt 0.470894 0.676773
vt 0.708761 0.485517
vt 0.575006 0.485551
vt 0.485215 0.485428
vt 0.395557 0.485234
vt 0.082804 0.180390
vt 0.082612 0.269909
vt 0.342794 0.385897
vt 0.353422 0.388261
vt 0.354315 0.474576
vt 0.343598 0.476465
vt 0.367413 0.515977
vt 0.357349 0.520034
vt 0.414993 0.588026
vt 0.407145 0.595512
vt 0.527252 0.650247
vt 0.524805 0.660800
vt 0.613160 0.648781
vt 0.615465 0.659362
vt 0.691782 0.614529
vt 0.698063 0.623354
vt 0.751230 0.552958
vt 0.760569 0.558751
vt 0.782749 0.473511
vt 0.794000 0.475351
vt 0.769751 0.346814
vt 0.780737 0.342263
vt 0.722202 0.275671
vt 0.730778 0.267273
vt 0.610828 0.213505
vt 0.613375 0.202060
vt 0.524909 0.213386
vt 0.523008 0.202040
vt 0.445388 0.246431
vt 0.439559 0.236992
vt 0.384877 0.307928
vt 0.376036 0.301569
vt 0.870694 0.784590
vt 0.859674 0.758077
vt 0.948649 0.697893
vt 0.975589 0.762876
vt 0.850509 0.746957
vt 0.926250 0.670806
vt 0.826487 0.731245
vt 0.867445 0.632630
vt 0.783843 0.727306
vt 0.763320 0.622410
vt 0.757280 0.738281
vt 0.698215 0.648703
vt 0.737063 0.758615
vt 0.648669 0.698486
vt 0.726132 0.785215
vt 0.621400 0.763451
vt 0.726083 0.814067
vt 0.621289 0.834114
vt 0.606821 0.527675
vt 0.607617 0.493158
vt 0.683131 0.495236
vt 0.681503 0.529349
vt 0.745507 0.357514
vt 0.756489 0.469211
vt 0.746230 0.852025
vt 0.670615 0.927454
vt 0.770348 0.867966
vt 0.729859 0.966755
vt 0.813190 0.871911
vt 0.835208 0.976262
vt 0.839814 0.860649
vt 0.900373 0.948792
vt 0.860058 0.840094
vt 0.949770 0.898367
vt 0.870856 0.813370
vt 0.976061 0.833152
vt 0.798377 0.799692
vt 0.703501 0.294534
vt 0.605294 0.239474
vt 0.529609 0.239510
vt 0.459967 0.268722
vt 0.407145 0.322695
vt 0.379760 0.393227
vt 0.380615 0.469236
vt 0.392243 0.505807
vt 0.433904 0.569213
vt 0.531537 0.623907
vt 0.606852 0.622809
vt 0.675948 0.593010
vt 0.728400 0.539091
vt 0.960555 0.690071
vt 0.989527 0.760070
vt 0.495278 0.527985
vt 0.495037 0.493071
vt 0.420064 0.529349
vt 0.419305 0.494326
vt 0.554473 0.877386
vt 0.589245 0.877358
vt 0.587487 0.990000
vt 0.552465 0.989207
vt 0.554316 0.802545
vt 0.588749 0.801722
vt 0.552465 0.727900
vt 0.586511 0.726231
vt 0.475967 0.369114
vt 0.474683 0.402843
vt 0.399348 0.398385
vt 0.401768 0.364384
vt 0.550227 0.370830
vt 0.550069 0.404461
vt 0.624570 0.370001
vt 0.625453 0.403627
vt 0.661881 0.368698
vt 0.663304 0.402336
vt 0.736088 0.364384
vt 0.738566 0.397828
vt 0.328900 0.311315
vt 0.295216 0.310525
vt 0.300617 0.198470
vt 0.334069 0.200839
vt 0.328312 0.385684
vt 0.294569 0.385903
vt 0.330192 0.460000
vt 0.296360 0.461284
vt 0.334687 0.534248
vt 0.300617 0.536626
vt 0.936138 0.660585
vt 0.872603 0.619413
vt 0.760889 0.608381
vt 0.690425 0.636834
vt 0.636851 0.690670
vt 0.607582 0.760683
vt 0.607582 0.836927
vt 0.660465 0.937251
vt 0.724400 0.979696
vt 0.837840 0.990000
vt 0.908230 0.960372
vt 0.961568 0.906041
vt 0.990000 0.835782
# 232 texture coordinates

vn 0.567680 0.732939 -0.374888
vn 0.388950 0.726005 -0.567129
vn 0.145132 0.716896 -0.681907
vn -0.164924 0.710828 -0.683757
vn -0.475501 0.705157 -0.525978
vn -0.667230 0.707433 -0.233115
vn -0.688285 0.716939 0.110733
vn 0.010364 0.999910 0.008540
vn 0.009859 0.999945 0.003471
vn 0.011431 0.999928 0.003551
vn 0.012636 0.999916 0.002955
vn 0.012516 0.999920 0.001733
vn 0.009862 0.999951 0.001225
vn 0.005212 0.999980 0.003649
vn 0.002183 0.999965 0.008063
vn 0.002227 0.999936 0.011080
vn 0.003244 0.999929 0.011497
vn 0.003838 0.999939 0.010318
vn 0.004474 0.999949 0.009055
vn 0.005676 0.999953 0.007807
vn 0.007159 0.999956 0.006140
vn 0.008154 0.999956 0.004565
vn 0.008822 0.999954 0.003686
vn 0.270601 0.961187 -0.053810
vn 0.234697 0.959670 -0.154762
vn 0.166418 0.956332 -0.240277
vn 0.065357 0.951694 -0.300012
vn -0.076003 0.946424 -0.313856
vn -0.222868 0.942993 -0.247174
vn -0.310593 0.944467 -0.107302
vn -0.307880 0.950114 0.049932
vn -0.243256 0.955293 0.168055
vn -0.157008 0.958610 0.237518
vn -0.054215 0.960360 0.273441
vn 0.068001 0.960838 0.268640
vn 0.185818 0.960800 0.205754
vn 0.250406 0.960838 0.118691
vn 0.272901 0.961193 0.040421
vn 0.851377 0.496425 -0.169469
vn 0.723186 0.494620 -0.482031
vn 0.487182 0.490713 -0.722395
vn 0.174719 0.485993 -0.856320
vn -0.211076 0.482199 -0.850253
vn -0.589013 0.478784 -0.651022
vn -0.827022 0.480067 -0.292525
vn -0.864195 0.485602 0.131745
vn -0.723058 0.489702 0.487216
vn -0.482632 0.493594 0.723486
vn -0.169602 0.495538 0.851867
vn 0.211437 0.497655 0.841210
vn 0.582094 0.497547 0.643128
vn 0.785647 0.494278 0.372087
vn 0.859656 0.494702 0.127517
vn 0.980780 0.001826 -0.195108
vn 0.831937 0.001647 -0.554868
vn 0.558174 0.000551 -0.829723
vn 0.198759 -0.000891 -0.980048
vn -0.240644 -0.002147 -0.970611
vn -0.671397 -0.002950 -0.741092
vn -0.942383 -0.002689 -0.334525
vn -0.988592 -0.001417 0.150613
vn -0.830015 0.000482 0.557741
vn -0.555195 0.001913 0.831718
vn -0.195107 0.002109 0.980780
vn 0.242988 0.002010 0.970027
vn 0.671579 0.002098 0.740930
vn 0.903954 0.002014 0.427625
vn 0.989161 0.001803 0.146825
vn 0.867773 -0.466046 -0.172545
vn 0.735886 -0.466363 -0.490895
vn 0.493656 -0.466679 -0.733835
vn 0.175946 -0.467336 -0.866395
vn -0.213025 -0.469634 -0.856776
vn -0.591854 -0.470707 -0.654327
vn -0.831948 -0.470285 -0.294440
vn -0.873235 -0.468934 0.132518
vn -0.734200 -0.466790 0.493008
vn -0.491177 -0.466558 0.735574
vn -0.172505 -0.466157 0.867721
vn 0.215414 -0.467418 0.857390
vn 0.593187 -0.467490 0.655426
vn 0.800470 -0.464476 0.378826
vn 0.876084 -0.464377 0.129738
vn 0.296582 -0.953205 -0.058643
vn 0.252195 -0.953123 -0.167194
vn 0.171182 -0.952811 -0.250694
vn 0.063037 -0.952613 -0.297582
vn -0.072238 -0.952593 -0.295549
vn -0.203538 -0.952646 -0.225916
vn -0.287353 -0.952621 -0.099704
vn -0.300463 -0.952603 0.047637
vn -0.251271 -0.952748 0.170687
vn -0.167511 -0.953110 0.252034
vn -0.058550 -0.953142 0.296803
vn 0.074223 -0.953278 0.292835
vn 0.202326 -0.953367 0.223954
vn 0.273696 -0.953034 0.129682
vn 0.299766 -0.952980 0.044376
vn 0.003689 -0.999993 0.000920
vn 0.004492 -0.999989 0.001205
vn 0.005730 -0.999982 0.001482
vn 0.006083 -0.999981 0.001086
vn 0.004716 -0.999989 0.000538
vn 0.002359 -0.999996 0.001492
vn 0.000794 -0.999992 0.003823
vn 0.000869 -0.999985 0.005399
vn 0.001161 -0.999987 0.005022
vn 0.001230 -0.999991 0.003957
vn 0.001595 -0.999993 0.003386
vn 0.002179 -0.999994 0.002889
vn 0.002821 -0.999994 0.002201
vn 0.003200 -0.999994 0.001507
vn 0.003395 -0.999994 0.001069
vn 0.005116 -0.999980 0.003824
vn 0.663342 0.736655 -0.131596
vn 0.670884 0.734851 0.099546
vn 0.613551 0.734531 0.289860
vn 0.451766 0.740086 0.498176
vn 0.163700 0.739466 0.652987
vn -0.131381 0.734561 0.665702
vn -0.376690 0.730339 0.569833
vn -0.569836 0.723203 0.390209
vn -0.872925 0.466037 0.144266
vn -0.821421 0.495408 -0.282559
vn -0.577848 0.503849 -0.642050
vn -0.201075 0.487906 -0.849422
vn 0.186758 0.460184 -0.867959
vn 0.510786 0.432674 -0.742893
vn 0.760610 0.412879 -0.501003
vn 0.896457 0.406130 -0.177266
vn 0.904533 0.404829 0.133920
vn 0.826373 0.405458 0.390783
vn 0.613098 0.407491 0.676803
vn 0.222982 0.407634 0.885502
vn -0.175908 0.408915 0.895458
vn -0.500314 0.416286 0.759205
vn -0.742429 0.434480 0.509928
vn 0.394977 0.916802 0.058880
vn 0.360281 0.917108 0.170620
vn 0.266028 0.918191 0.293521
vn 0.098189 0.918401 0.383274
vn -0.073344 0.919021 0.387326
vn -0.207823 0.922679 0.324767
vn -0.295619 0.931169 0.213387
vn -0.322608 0.944391 0.063643
vn -0.280660 0.955704 -0.088661
vn -0.188691 0.958742 -0.212624
vn -0.061864 0.952757 -0.297366
vn 0.080505 0.941975 -0.325887
vn 0.215448 0.930037 -0.297679
vn 0.328752 0.920745 -0.210121
vn 0.390781 0.917398 -0.075311
# 152 normals

usemtl Smoke_Detector
f 105/1/105 114/2/114 106/3/106
f 106/3/106 114/2/114 107/4/107
f 107/4/107 114/2/114 108/5/108
f 108/5/108 114/2/114 109/6/109
f 109/6/109 114/2/114 110/7/110
f 110/7/110 114/2/114 111/8/111
f 111/8/111 114/2/114 112/9/112
f 112/9/112 114/2/114 113/10/113
f 113/10/113 114/2/114 99/11/99
f 104/12/104 114/2/114 105/1/105
f 103/13/103 114/2/114 104/12/104
f 102/14/102 114/2/114 103/13/103
f 101/15/101 114/2/114 102/14/102
f 100/16/100 114/2/114 101/15/101
f 99/11/99 114/2/114 100/16/100
f 99/11/99 84/17/84 98/18/98 113/10/113
f 113/10/113 98/18/98 97/19/97 112/9/112
f 112/9/112 97/19/97 96/20/96 111/8/111
f 111/8/111 96/20/96 95/21/95 110/7/110
f 110/7/110 95/21/95 94/22/94 109/6/109
f 109/6/109 94/22/94 93/23/93 108/5/108
f 108/5/108 93/23/93 92/24/92 107/4/107
f 107/4/107 92/24/92 91/25/91 106/3/106
f 106/3/106 91/25/91 90/26/90 105/1/105
f 105/1/105 90/26/90 89/27/89 104/12/104
f 104/12/104 89/27/89 88/28/88 103/13/103
f 103/13/103 88/28/88 87/29/87 102/14/102
f 102/14/102 87/29/87 86/30/86 101/15/101
f 101/15/101 86/30/86 85/31/85 100/16/100
f 100/16/100 85/31/85 84/17/84 99/11/99
f 84/17/84 69/32/69 83/33/83 98/18/98
f 98/18/98 83/33/83 82/34/82 97/19/97
f 97/19/97 82/34/82 81/35/81 96/20/96
f 96/20/96 81/35/81 80/36/80 95/21/95
f 95/21/95 80/36/80 79/37/79 94/22/94
f 94/22/94 79/37/79 78/38/78 93/23/93
f 93/23/93 78/38/78 77/39/77 92/24/92
f 92/24/92 77/39/77 76/40/76 91/25/91
f 91/25/91 76/40/76 75/41/75 90/26/90
f 90/26/90 75/41/75 74/42/74 89/27/89
f 89/27/89 74/42/74 73/43/73 88/28/88
f 88/28/88 73/43/73 72/44/72 87/29/87
f 87/29/87 72/44/72 71/45/71 86/30/86
f 86/30/86 71/45/71 70/46/70 85/31/85
f 85/31/85 70/46/70 69/32/69 84/17/84
f 69/47/69 54/48/54 68/49/68 83/50/83
f 83/50/83 68/49/68 67/51/67 82/52/82
f 82/52/82 67/51/67 66/53/66 81/54/81
f 81/55/81 66/56/66 65/57/65 80/58/80
f 80/58/80 65/57/65 64/59/64 79/60/79
f 79/60/79 64/59/64 63/61/63 78/62/78
f 78/62/78 63/61/63 62/63/62 77/64/77
f 77/65/77 62/66/62 61/67/61 76/68/76
f 76/68/76 61/67/61 60/69/60 75/70/75
f 75/70/75 60/69/60 59/71/59 74/72/74
f 74/73/74 59/74/59 58/75/58 73/76/73
f 73/76/73 58/75/58 57/77/57 72/78/72
f 72/78/72 57/77/57 56/79/56 71/80/71
f 71/81/71 56/82/56 55/83/55 70/84/70
f 70/84/70 55/83/55 54/48/54 69/47/69
f 54/48/54 39/85/39 53/86/53 68/49/68
f 68/49/68 53/86/53 52/87/52 67/51/67
f 67/51/67 52/87/52 51/88/51 66/53/66
f 66/56/66 51/89/51 50/90/50 65/57/65
f 65/57/65 50/90/50 49/91/49 64/59/64
f 64/59/64 49/91/49 48/92/48 63/61/63
f 63/61/63 48/92/48 47/93/47 62/63/62
f 62/66/62 47/94/47 46/95/46 61/67/61
f 61/67/61 46/95/46 45/96/45 60/69/60
f 60/69/60 45/96/45 44/97/44 59/71/59
f 59/74/59 44/98/44 43/99/43 58/75/58
f 58/75/58 43/99/43 42/100/42 57/77/57
f 57/77/57 42/100/42 41/101/41 56/79/56
f 56/82/56 41/102/41 40/103/40 55/83/55
f 55/83/55 40/103/40 39/85/39 54/48/54
f 39/104/39 24/105/24 38/106/38 53/107/53
f 53/107/53 38/106/38 37/108/37 52/109/52
f 52/109/52 37/108/37 36/110/36 51/111/51
f 51/111/51 36/110/36 35/112/35 50/113/50
f 50/113/50 35/112/35 34/114/34 49/115/49
f 49/115/49 34/114/34 33/116/33 48/117/48
f 48/117/48 33/116/33 32/118/32 47/119/47
f 47/119/47 32/118/32 31/120/31 46/121/46
f 46/121/46 31/120/31 30/122/30 45/123/45
f 45/123/45 30/122/30 29/124/29 44/125/44
f 44/125/44 29/124/29 28/126/28 43/127/43
f 43/127/43 28/126/28 27/128/27 42/129/42
f 42/129/42 27/128/27 26/130/26 41/131/41
f 41/131/41 26/130/26 25/132/25 40/133/40
f 40/133/40 25/132/25 24/105/24 39/104/39
f 9/134/9 23/135/23 138/136/138 152/137/152
f 23/135/23 22/138/22 139/139/139 138/136/138
f 22/138/22 21/140/21 140/141/140 139/139/139
f 21/140/21 20/142/20 141/143/141 140/141/140
f 20/142/20 19/144/19 142/145/142 141/143/141
f 19/144/19 18/146/18 143/147/143 142/145/142
f 18/146/18 17/148/17 144/149/144 143/147/143
f 17/148/17 16/150/16 145/151/145 144/149/144
f 123/152/123 7/153/7 122/154/122 137/155/137
f 6/156/6 30/122/30 31/120/31 7/157/7
f 16/150/16 15/158/15 146/159/146 145/151/145
f 15/158/15 14/160/14 147/161/147 146/159/146
f 14/160/14 13/162/13 148/163/148 147/161/147
f 13/162/13 12/164/12 149/165/149 148/163/148
f 12/164/12 11/166/11 150/167/150 149/165/149
f 11/166/11 10/168/10 151/169/151 150/167/150
f 10/168/10 9/134/9 152/137/152 151/169/151
f 8/170/8 23/135/23 9/134/9
f 8/170/8 22/138/22 23/135/23
f 8/170/8 21/140/21 22/138/22
f 8/170/8 20/142/20 21/140/21
f 8/170/8 19/144/19 20/142/20
f 8/170/8 18/146/18 19/144/19
f 8/170/8 17/148/17 18/146/18
f 8/170/8 16/150/16 17/148/17
f 8/170/8 15/158/15 16/150/16
f 8/170/8 14/160/14 15/158/15
f 8/170/8 13/162/13 14/160/14
f 8/170/8 12/164/12 13/162/13
f 8/170/8 11/166/11 12/164/12
f 8/170/8 10/168/10 11/166/11
f 8/170/8 9/134/9 10/168/10
f 5/171/5 29/124/29 30/122/30 6/156/6
f 4/172/4 28/126/28 29/124/29 5/171/5
f 3/173/3 27/128/27 28/126/28 4/172/4
f 2/174/2 26/130/26 27/128/27 3/173/3
f 1/175/1 25/132/25 26/130/26 2/174/2
f 115/176/115 24/105/24 25/132/25 1/175/1
f 116/177/116 38/106/38 24/105/24 115/176/115
f 117/178/117 37/108/37 38/106/38 116/177/116
f 118/179/118 36/110/36 37/108/37 117/178/117
f 119/180/119 35/112/35 36/110/36 118/179/118
f 120/181/120 34/114/34 35/112/35 119/180/119
f 121/182/121 33/116/33 34/114/34 120/181/120
f 122/183/122 32/118/32 33/116/33 121/182/121
f 7/157/7 31/120/31 32/118/32 122/183/122
f 138/136/138 131/184/131 130/185/130 152/137/152
f 124/186/124 6/187/6 7/153/7 123/152/123
f 125/188/125 5/189/5 6/187/6 124/186/124
f 126/190/126 4/191/4 5/192/5 125/193/125
f 127/194/127 3/195/3 4/191/4 126/190/126
f 128/196/128 2/197/2 3/195/3 127/194/127
f 129/198/129 1/199/1 2/200/2 128/201/128
f 130/202/130 115/203/115 1/199/1 129/198/129
f 131/204/131 116/205/116 115/203/115 130/202/130
f 132/206/132 117/207/117 116/205/116 131/204/131
f 133/208/133 118/209/118 117/207/117 132/206/132
f 134/210/134 119/211/119 118/212/118 133/213/133
f 135/214/135 120/215/120 119/211/119 134/210/134
f 136/216/136 121/217/121 120/215/120 135/214/135
f 137/218/137 122/219/122 121/217/121 136/216/136
f 139/139/139 132/220/132 131/184/131 138/136/138
f 140/141/140 133/221/133 132/220/132 139/139/139
f 141/143/141 134/222/134 133/221/133 140/141/140
f 142/145/142 135/223/135 134/222/134 141/143/141
f 143/147/143 136/224/136 135/223/135 142/145/142
f 144/149/144 137/225/137 136/224/136 143/147/143
f 145/151/145 123/226/123 137/225/137 144/149/144
f 146/159/146 124/227/124 123/226/123 145/151/145
f 147/161/147 125/228/125 124/227/124 146/159/146
f 148/163/148 126/229/126 125/228/125 147/161/147
f 149/165/149 127/230/127 126/229/126 148/163/148
f 150/167/150 128/231/128 127/230/127 149/165/149
f 151/169/151 129/232/129 128/231/128 150/167/150
f 152/137/152 130/185/130 129/232/129 151/169/151

# 165 faces
